<?xml version="1.0" standalone="no"?>
<!DOCTYPE svg PUBLIC "-//W3C//DTD SVG 20010904//EN"
 "http://www.w3.org/TR/2001/REC-SVG-20010904/DTD/svg10.dtd">
<svg version="1.0" xmlns="http://www.w3.org/2000/svg"
 width="1024.000000pt" height="1024.000000pt" viewBox="0 0 1024.000000 1024.000000"
 preserveAspectRatio="xMidYMid meet">

<g transform="translate(0.000000,1024.000000) scale(0.100000,-0.100000)"
fill="#000000" stroke="none">
<path d="M0 5120 l0 -5120 5122 0 5121 0 -7 547 c-4 302 -7 2606 -7 5121 l0
4572 -5115 0 -5114 0 0 -5120z m3097 910 l414 0 -3 -82 -3 -81 -60 -14 c-33
-8 -96 -23 -140 -35 -44 -11 -100 -24 -125 -29 -271 -57 -433 -97 -442 -112
-4 -6 -8 -55 -8 -108 l0 -96 -74 -22 c-41 -11 -112 -37 -158 -56 -46 -20 -117
-47 -158 -61 -41 -14 -88 -32 -105 -39 -16 -7 -56 -23 -87 -35 -31 -11 -73
-32 -93 -46 -20 -13 -55 -34 -78 -46 -36 -19 -39 -23 -19 -26 22 -3 22 -6 22
-142 l0 -140 -49 -27 c-26 -16 -67 -45 -90 -66 l-42 -38 28 -57 c24 -48 27
-67 25 -126 -6 -150 -87 -212 -224 -172 -65 19 -101 45 -133 97 -51 80 -45
168 16 234 61 66 158 88 228 52 18 -9 39 -13 46 -9 7 4 44 37 84 73 l72 66
-24 15 c-82 54 -266 72 -372 37 -71 -24 -130 -68 -184 -135 -79 -100 -94 -156
-89 -337 l3 -137 -157 0 -158 0 0 48 c1 92 29 328 46 382 43 141 68 208 92
250 14 25 36 63 48 85 13 22 32 58 44 80 12 22 37 58 56 80 19 22 53 63 75 92
53 68 223 234 257 252 15 7 47 30 71 50 51 41 117 80 251 146 134 66 168 81
230 100 30 9 74 25 97 36 24 10 49 19 57 19 8 0 17 4 20 9 3 4 39 14 81 21 42
7 78 17 81 21 3 5 17 9 32 9 15 0 50 7 77 15 28 8 63 12 79 9 16 -2 215 -4
443 -4z m2817 -282 c14 -23 -3 -52 -33 -56 -42 -6 -67 38 -39 66 17 17 58 11
72 -10z m-1857 -168 l60 -171 -45 3 c-42 3 -46 5 -54 36 l-9 33 -62 -3 c-60
-3 -62 -4 -71 -35 -8 -31 -12 -33 -52 -33 l-43 0 45 128 c26 70 53 146 61 170
15 41 15 42 63 42 l47 0 60 -170z m2757 164 c10 -4 16 -18 16 -41 0 -29 -3
-34 -17 -28 -43 17 -89 17 -107 0 -22 -23 -9 -38 61 -71 62 -30 75 -49 71
-107 -4 -58 -47 -87 -130 -87 -77 0 -98 11 -98 54 l0 34 44 -16 c33 -12 52
-14 73 -6 47 16 36 44 -28 76 -65 30 -89 59 -89 103 1 36 17 59 56 80 29 15
118 20 148 9z m-2284 -49 c0 -32 2 -35 31 -35 27 0 30 -3 27 -27 -2 -22 -9
-29 -30 -31 -26 -3 -28 -6 -28 -52 0 -64 7 -80 37 -80 21 0 24 -4 21 -27 -3
-25 -8 -28 -44 -31 -66 -5 -84 17 -91 111 -4 55 -10 77 -19 77 -9 0 -14 11
-14 30 0 20 5 30 15 30 9 0 15 9 15 24 0 17 8 27 28 34 46 17 52 14 52 -23z
m1210 0 c0 -32 2 -35 30 -35 27 0 30 -3 30 -30 0 -27 -3 -30 -30 -30 -29 0
-30 -2 -30 -42 0 -67 9 -88 36 -88 20 0 24 -5 24 -30 0 -29 -2 -30 -45 -30
-69 0 -85 22 -85 115 0 68 -2 75 -20 75 -16 0 -20 7 -20 30 0 23 5 30 19 30
14 0 21 8 23 27 3 25 20 37 61 42 4 1 7 -15 7 -34z m1730 0 c0 -32 2 -35 30
-35 27 0 30 -3 30 -30 0 -27 -3 -30 -30 -30 -29 0 -30 -2 -30 -42 0 -67 9 -88
36 -88 20 0 24 -5 24 -30 0 -29 -2 -30 -45 -30 -69 0 -85 22 -85 115 0 68 -2
75 -20 75 -16 0 -20 7 -20 30 0 23 5 30 19 30 14 0 21 8 23 27 3 25 20 37 61
42 4 1 7 -15 7 -34z m-3970 -675 l0 -680 -310 0 -310 0 0 609 0 609 53 12 c28
6 70 15 92 20 22 6 78 17 125 25 47 9 139 31 205 49 66 19 126 34 133 35 9 1
12 -141 12 -679z m722 554 c2 -70 6 -89 21 -98 12 -8 22 -8 35 0 14 9 18 28
20 98 l3 86 39 0 40 0 0 -125 0 -125 -40 0 c-30 0 -40 4 -40 16 0 14 -2 14
-22 0 -26 -18 -70 -21 -98 -6 -26 14 -40 70 -40 163 l0 77 40 0 39 0 3 -86z
m588 71 c56 -29 75 -104 44 -171 -20 -42 -59 -64 -114 -64 -80 0 -130 45 -130
118 0 53 22 97 58 116 35 20 105 20 142 1z m180 -5 l0 -21 22 21 c26 24 75 26
106 4 20 -14 24 -14 44 0 36 26 93 21 117 -10 18 -23 21 -41 21 -125 l0 -99
-40 0 -40 0 0 90 c0 75 -3 92 -16 97 -37 14 -49 -10 -52 -101 l-3 -86 -39 0
-40 0 0 83 c0 85 -8 107 -42 107 -27 0 -38 -32 -38 -114 l0 -76 -40 0 -40 0 0
125 0 125 40 0 c34 0 40 -3 40 -20z m581 -18 c23 -26 29 -42 29 -78 0 -85 -47
-134 -130 -134 -79 0 -130 49 -130 125 0 84 51 127 144 122 52 -3 63 -7 87
-35z m339 -87 l0 -125 -40 0 -40 0 0 125 0 125 40 0 40 0 0 -125z m140 38 l23
-87 13 44 c7 25 18 64 24 88 10 40 12 42 50 42 22 0 40 -3 40 -6 0 -3 -19 -60
-42 -125 l-43 -119 -45 0 -45 0 -42 125 -41 125 42 0 43 0 23 -87z m355 65
c26 -23 51 -99 40 -119 -4 -5 -40 -9 -81 -9 -70 0 -74 -1 -65 -19 13 -24 49
-33 89 -21 31 8 32 7 32 -20 0 -33 -14 -40 -78 -40 -95 0 -150 71 -123 159 25
84 126 121 186 69z m666 -6 c24 -21 32 -38 36 -74 l6 -47 -82 -3 c-78 -3 -81
-4 -68 -22 15 -20 55 -25 100 -13 24 7 27 5 27 -17 0 -32 -26 -46 -85 -46 -88
0 -124 36 -125 124 0 53 3 61 34 92 29 29 41 34 80 34 36 0 52 -6 77 -28z
m259 -5 c0 -32 -1 -32 -37 -29 -52 5 -77 -16 -77 -63 0 -48 25 -68 77 -62 38
5 38 5 35 -26 -3 -31 -4 -32 -61 -35 -55 -3 -60 -1 -92 31 -31 31 -35 41 -35
87 0 28 5 60 11 71 18 35 70 59 127 59 l52 0 0 -33z m451 -5 c23 -26 29 -42
29 -78 0 -85 -47 -134 -130 -134 -79 0 -130 49 -130 125 0 84 51 127 144 122
52 -3 63 -7 87 -35z m149 22 c0 -14 2 -14 22 0 12 9 33 16 46 16 20 0 23 -4
20 -32 -3 -26 -7 -32 -30 -33 -42 -1 -51 -18 -56 -105 l-5 -80 -33 0 -34 0 0
125 0 125 35 0 c25 0 35 -4 35 -16z m-5210 -819 l0 -485 -305 0 -305 0 0 368
0 369 25 11 c14 7 31 12 36 12 11 0 124 47 274 113 79 34 246 95 268 96 4 1 7
-217 7 -484z m2880 234 l0 -70 22 15 c32 23 78 20 105 -6 21 -20 23 -30 23
-125 l0 -103 -35 0 -35 0 0 76 c0 82 -11 114 -38 114 -34 0 -42 -22 -42 -107
l0 -83 -40 0 -40 0 0 180 0 180 40 0 40 0 0 -71z m-1581 36 c33 -16 41 -33 41
-82 0 -25 -8 -43 -30 -64 l-30 -30 29 -37 c15 -20 38 -54 50 -74 l23 -38 -45
0 c-44 0 -45 1 -86 65 -22 36 -47 65 -56 65 -12 0 -15 -13 -15 -65 l0 -65 -40
0 -40 0 0 170 0 170 85 0 c56 0 96 -5 114 -15z m2162 -157 l58 -168 -38 0
c-37 0 -40 2 -48 38 l-9 37 -64 0 -65 0 -11 -35 c-10 -30 -16 -35 -48 -38 -20
-2 -36 -1 -36 2 0 4 88 252 111 314 8 20 15 23 50 20 l42 -3 58 -167z m262
166 c32 -6 37 -10 37 -33 0 -25 -2 -26 -62 -26 -61 0 -63 -1 -63 -25 0 -20 11
-31 59 -56 69 -37 92 -71 79 -117 -13 -45 -52 -69 -114 -71 -85 -1 -109 9
-109 45 0 26 3 30 18 23 9 -4 41 -10 69 -12 43 -3 54 -1 60 13 10 27 -8 47
-70 78 -120 61 -91 173 48 186 6 0 27 -2 48 -5z m269 0 c53 -9 78 -36 78 -85
0 -29 -7 -47 -25 -64 -13 -14 -29 -25 -35 -25 -7 0 3 -18 22 -39 18 -21 44
-57 56 -80 l23 -41 -38 0 c-36 0 -40 3 -78 65 -30 49 -45 65 -62 65 -22 0 -23
-4 -23 -65 l0 -65 -35 0 -35 0 0 170 0 170 58 0 c31 0 74 -3 94 -6z m-2433
-98 c32 -17 51 -54 51 -101 l0 -35 -75 0 c-41 0 -75 -4 -75 -9 0 -28 61 -44
108 -28 20 7 22 5 22 -21 0 -34 -17 -42 -93 -42 -42 0 -54 5 -83 34 -29 29
-34 41 -34 80 0 26 7 60 15 76 28 55 105 76 164 46z m235 8 c10 -4 16 -18 16
-35 0 -32 -3 -34 -32 -18 -22 12 -68 4 -68 -12 0 -5 17 -17 38 -26 66 -27 85
-58 66 -108 -10 -24 -58 -45 -108 -45 -63 0 -76 7 -76 42 0 25 3 29 18 23 40
-16 78 -17 91 -2 11 14 5 19 -39 38 -76 33 -89 84 -33 129 25 20 92 27 127 14z
m235 -8 c32 -17 51 -54 51 -101 l0 -35 -75 0 c-41 0 -75 -4 -75 -9 0 -28 61
-44 108 -28 20 7 22 5 22 -21 0 -34 -17 -42 -93 -42 -42 0 -54 5 -83 34 -29
29 -34 41 -34 80 0 26 7 60 15 76 28 55 105 76 164 46z m266 -11 c23 -22 25
-31 25 -125 l0 -100 -35 0 c-26 0 -35 4 -35 17 0 15 -1 15 -18 0 -10 -10 -34
-17 -52 -17 -46 0 -70 24 -70 72 0 51 25 74 89 83 33 4 51 12 51 21 0 21 -44
27 -84 10 l-36 -15 0 30 c0 36 23 47 93 48 38 1 53 -4 72 -24z m165 9 c0 -14
1 -14 16 0 8 9 26 16 40 16 21 0 24 -5 24 -34 0 -29 -3 -33 -23 -29 -43 8 -57
-19 -57 -108 l0 -79 -40 0 -40 0 0 125 0 125 40 0 c30 0 40 -4 40 -16z m290
-17 c0 -32 -1 -32 -37 -29 -52 5 -77 -16 -77 -63 0 -48 25 -68 77 -62 38 5 38
5 35 -26 -3 -31 -4 -32 -61 -35 -55 -3 -60 -1 -92 31 -31 31 -35 41 -35 87 0
28 5 60 11 71 18 35 70 59 127 59 l52 0 0 -33z"/>
<path d="M2405 5865 c-354 -111 -439 -145 -605 -241 -180 -104 -246 -156 -381
-300 -86 -93 -172 -224 -156 -240 11 -11 134 53 209 108 80 59 126 87 268 160
52 27 99 53 105 57 5 5 37 18 70 30 33 12 80 34 105 48 25 13 99 47 165 75 66
27 138 58 160 67 22 10 57 24 77 30 21 7 57 23 80 35 42 22 43 23 46 80 4 78
-12 96 -82 95 -28 0 -55 -2 -61 -4z"/>
<path d="M1600 4719 c-65 -29 -105 -94 -96 -155 10 -77 78 -148 155 -160 84
-13 169 80 155 171 -9 61 -50 121 -100 145 -50 25 -58 24 -114 -1z"/>
<path d="M3931 5623 c-7 -27 -15 -56 -18 -65 -5 -15 1 -18 35 -18 l41 0 -16
53 c-23 79 -27 82 -42 30z"/>
<path d="M4702 5588 c-16 -16 -16 -90 0 -106 19 -19 66 -15 78 7 26 49 4 111
-38 111 -16 0 -33 -5 -40 -12z"/>
<path d="M5430 5581 c-26 -49 -4 -111 38 -111 39 0 52 17 52 65 0 23 -5 46
-12 53 -19 19 -66 15 -78 -7z"/>
<path d="M6307 5592 c-25 -27 -21 -32 23 -32 33 0 40 4 40 19 0 17 -18 31 -39
31 -4 0 -15 -8 -24 -18z"/>
<path d="M6973 5598 c-27 -35 -25 -38 21 -38 49 0 56 9 30 34 -19 19 -38 20
-51 4z"/>
<path d="M7640 5581 c-26 -49 -4 -111 38 -111 39 0 52 17 52 65 0 23 -5 46
-12 53 -19 19 -66 15 -78 -7z"/>
<path d="M3900 5005 c0 -41 2 -45 24 -45 45 0 72 50 44 78 -7 7 -25 12 -40 12
-27 0 -28 -2 -28 -45z"/>
<path d="M6058 4992 c-9 -32 -20 -66 -24 -75 -5 -15 1 -17 40 -17 25 0 46 4
46 9 0 10 -40 141 -43 141 -1 0 -10 -26 -19 -58z"/>
<path d="M6630 5005 c0 -51 2 -55 23 -55 36 0 67 27 67 60 0 32 -23 50 -64 50
-25 0 -26 -3 -26 -55z"/>
<path d="M4198 4959 c-33 -19 -21 -39 22 -39 43 0 45 2 30 31 -12 21 -26 23
-52 8z"/>
<path d="M4668 4959 c-33 -19 -21 -39 22 -39 43 0 45 2 30 31 -12 21 -26 23
-52 8z"/>
<path d="M4935 4881 c-18 -4 -31 -13 -33 -25 -8 -41 54 -41 64 1 8 30 6 31
-31 24z"/>
</g>
</svg>
